<svg width="34" height="34" viewBox="0 0 34 34" fill="none" xmlns="http://www.w3.org/2000/svg">
<path d="M17.2439 8.23291C13.5532 8.23291 11.1543 10.4467 11.1543 13.0294C11.1543 14.5053 12.0769 15.9811 13.7377 16.7191C12.0769 17.457 10.7852 18.9329 10.7852 20.7777C10.7852 23.7294 13.3687 25.9432 17.2439 25.9432C21.1192 25.9432 23.7027 23.9139 23.7027 20.7777C23.7027 18.9329 22.4109 17.457 20.9347 16.7191C22.4109 16.1656 23.3336 14.5053 23.3336 13.0294C23.3336 10.4467 21.1192 8.23291 17.2439 8.23291ZM17.2439 15.4278C15.3986 15.4278 14.2913 14.5053 14.2913 13.214C14.2913 12.1071 15.3986 11.0001 17.2439 11.0001C19.0893 11.0001 20.1965 12.1071 20.1965 13.214C20.1965 14.5053 19.0893 15.4278 17.2439 15.4278ZM17.2439 22.9915C15.214 22.9915 14.1068 21.8846 14.1068 20.5933C14.1068 19.3019 15.214 18.195 17.2439 18.195C19.2738 18.195 20.3811 19.3019 20.3811 20.5933C20.5656 21.8846 19.2738 22.9915 17.2439 22.9915Z" fill="#0E0F0F"/>
<path d="M17.0596 0.484375C7.83268 0.484375 0.451172 7.86369 0.451172 17.0878C0.451172 26.312 7.83268 33.6913 17.0596 33.6913C26.2865 33.6913 33.668 26.312 33.668 17.0878C33.668 7.86369 26.2865 0.484375 17.0596 0.484375ZM17.2441 25.7585C13.3688 25.7585 10.7853 23.7293 10.7853 20.593C10.7853 18.7482 12.0771 17.2723 13.7379 16.5344C12.0771 15.981 11.1544 14.3206 11.1544 12.8447C11.1544 10.262 13.5534 8.04824 17.2441 8.04824C20.9349 8.04824 23.3338 10.262 23.3338 12.8447C23.3338 14.3206 22.4112 15.7965 20.9349 16.5344C22.4112 17.2723 23.7029 18.7482 23.7029 20.593C23.7029 23.7293 21.1194 25.7585 17.2441 25.7585ZM17.2441 10.8155C15.3987 10.8155 14.2915 11.9223 14.2915 13.0292C14.2915 14.3206 15.3987 15.243 17.2441 15.243C19.0895 15.243 20.1967 14.3206 20.1967 13.0292C20.1967 11.9223 19.0895 10.8155 17.2441 10.8155ZM17.2441 18.1948C15.2142 18.1948 14.107 19.3017 14.107 20.593C14.107 21.6999 15.2142 22.9913 17.2441 22.9913C19.274 22.9913 20.3813 21.8844 20.3813 20.593C20.5658 19.3017 19.274 18.1948 17.2441 18.1948Z" fill="#F5C944"/>
</svg>
