<svg width="35" height="35" viewBox="0 0 35 35" fill="none" xmlns="http://www.w3.org/2000/svg">
<path d="M16.9359 1.58203C8.11455 1.58203 1.21094 8.48723 1.21094 17.3106C1.21094 25.7503 8.11455 32.8474 16.9359 32.8474C25.3737 32.8474 32.4691 25.9421 32.4691 17.3106C32.4691 8.67904 25.3737 1.58203 16.9359 1.58203Z" fill="white"/>
<path d="M17.3177 0.23877C7.53753 0.23877 0.0585938 7.71946 0.0585938 17.5019C0.0585938 26.9007 7.53753 34.765 17.3177 34.765C19.8106 34.765 22.1119 34.1896 24.2213 33.2306C30.3579 30.5452 34.5767 24.4072 34.5767 17.5019C34.5767 10.5967 30.3579 4.45862 24.2213 1.77325C22.1119 0.814184 19.6189 0.23877 17.3177 0.23877ZM13.8659 18.6528L11.1811 18.2691L11.7564 7.91127H23.646L22.4954 10.9803H14.6329L14.2494 15.2001C15.4 14.8165 16.7424 14.6247 17.5095 14.6247C20.7695 14.6247 23.8378 16.7347 23.8378 20.7627C23.8378 24.0236 21.153 27.0925 16.9341 27.0925C13.8658 27.0925 11.7564 26.1335 10.2222 24.4072L12.3317 22.2972C13.4823 23.4481 15.0165 23.8317 16.5506 23.8317C18.6601 23.8317 20.1942 22.8727 20.1942 20.7627C20.1942 19.0364 19.0436 17.6937 16.9341 17.6937C15.9753 17.6937 14.8247 18.0774 13.8659 18.6528Z" fill="#8E5540"/>
</svg>
