<svg width="34" height="34" viewBox="0 0 34 34" fill="none" xmlns="http://www.w3.org/2000/svg">
<path d="M16.8772 2.24707C8.57301 2.24707 1.92969 8.88836 1.92969 17.3746C1.92969 25.6763 8.57301 32.3177 16.8772 32.3177C25.1814 32.3177 32.0093 25.6763 32.0093 17.3746C31.8248 9.07284 25.1814 2.24707 16.8772 2.24707Z" fill="white"/>
<path d="M16.876 0.770996C7.64909 0.770996 0.267578 8.15034 0.267578 17.3745C0.267578 26.5987 7.64909 33.978 16.876 33.978C26.1029 33.978 33.4844 26.5987 33.4844 17.3745C33.4844 8.15034 25.9183 0.770996 16.876 0.770996ZM21.674 26.0453C17.6141 26.0453 15.0306 22.7246 15.0306 17.1901C15.0306 11.8401 17.4296 8.51933 21.674 8.51933C25.9183 8.51933 28.3173 11.8401 28.3173 17.1901C28.3173 22.7246 25.9183 26.0453 21.674 26.0453ZM5.61922 11.6556L6.54191 8.88832H11.7089V25.8608H8.57178V11.6556H5.61922ZM21.674 11.2866C19.4595 11.2866 18.3523 13.5004 18.3523 17.1901C18.3523 20.8797 19.4595 23.0936 21.674 23.0936C24.073 23.0936 24.9957 20.8797 24.9957 17.1901C24.9957 13.5004 24.073 11.2866 21.674 11.2866Z" fill="#B8CA53"/>
</svg>
