<svg width="34" height="34" viewBox="0 0 34 34" fill="none" xmlns="http://www.w3.org/2000/svg">
<path fill-rule="evenodd" clip-rule="evenodd" d="M17.2432 0.0947266C8.20081 0.0947266 0.634766 7.47404 0.634766 16.6982C0.634766 25.9223 8.01628 33.3016 17.2432 33.3016C26.2855 33.3016 33.8516 25.9223 33.8516 16.6982C33.667 7.65852 26.6546 0.0947266 17.2432 0.0947266Z" fill="#E680A9"/>
<path d="M7.8 24H15.52L16.36 21.68H13.2V10H8V12.32H10.58V21.68H7.8V24ZM21.8945 24.24C25.2945 24.24 27.2945 22.02 27.2945 19.48C27.2945 16.6 24.9545 14.98 22.5545 14.98C21.8545 14.98 20.8745 15.16 20.1745 15.54H20.1345L20.3145 12.32H26.1345L26.9745 10H18.1345L17.7545 17.84L19.8145 18.04C20.4945 17.58 21.3345 17.32 21.9945 17.32C23.6145 17.32 24.5745 18.32 24.5745 19.5C24.5745 20.96 23.3945 21.82 21.8745 21.82C20.8345 21.82 19.7145 21.42 18.7345 20.52L16.9745 22.28C18.1745 23.52 19.9745 24.24 21.8945 24.24Z" fill="white"/>
</svg>
