<svg width="50" height="50" viewBox="0 0 50 50" fill="none" xmlns="http://www.w3.org/2000/svg">
<path d="M19.0268 11.666C13.4713 11.666 9.86027 14.9993 9.86027 18.8882C9.86027 21.1104 11.2491 23.3326 13.7491 24.4437C11.2491 25.5548 9.30469 27.7771 9.30469 30.5548C9.30469 34.9993 13.1935 38.3326 19.0268 38.3326C24.8601 38.3326 28.749 35.277 28.749 30.5548C28.749 27.7771 26.8046 25.5548 24.5823 24.4437C26.8046 23.6104 28.1934 21.1104 28.1934 18.8882C28.1934 14.9993 24.8601 11.666 19.0268 11.666ZM19.0268 22.4994C16.2491 22.4994 14.5824 21.1105 14.5824 19.166C14.5824 17.4994 16.2491 15.8327 19.0268 15.8327C21.8046 15.8327 23.4713 17.4994 23.4713 19.166C23.4713 21.1105 21.8046 22.4994 19.0268 22.4994ZM19.0268 33.8882C15.9713 33.8882 14.3046 32.2216 14.3046 30.2771C14.3046 28.3327 15.9713 26.666 19.0268 26.666C22.0824 26.666 23.7491 28.3327 23.7491 30.2771C24.0268 32.2216 22.0824 33.8882 19.0268 33.8882Z" fill="#0E0F0F"/>
<path d="M25 0C11.1111 0 0 11.1111 0 25C0 38.8889 11.1111 50 25 50C38.8889 50 50 38.8889 50 25C50 11.1111 38.8889 0 25 0ZM19.0278 38.0556C13.1945 38.0556 9.30557 35.0001 9.30557 30.2778C9.30557 27.5001 11.25 25.2778 13.75 24.1667C11.25 23.3334 9.86116 20.8334 9.86116 18.6111C9.86116 14.7223 13.4722 11.389 19.0278 11.389C24.5834 11.389 28.1944 14.7223 28.1944 18.6111C28.1944 20.8334 26.8056 23.0556 24.5834 24.1667C26.8056 25.2778 28.75 27.5001 28.75 30.2778C28.75 35.0001 24.8611 38.0556 19.0278 38.0556ZM19.0278 15.5557C16.25 15.5557 14.5833 17.2222 14.5833 18.8889C14.5833 20.8333 16.25 22.2222 19.0278 22.2222C21.8056 22.2222 23.4723 20.8333 23.4723 18.8889C23.4723 17.2222 21.8056 15.5557 19.0278 15.5557ZM19.0278 26.6668C15.9722 26.6668 14.3055 28.3334 14.3055 30.2778C14.3055 31.9445 15.9722 33.8889 19.0278 33.8889C22.0834 33.8889 23.7501 32.2223 23.7501 30.2778C24.0278 28.3334 22.0834 26.6668 19.0278 26.6668Z" fill="#F5C944"/>
<path d="M31.61 37.5L32.63 34.6H38.05L39.09 37.5H41.97L36.57 23.5H34.25L28.85 37.5H31.61ZM33.43 32.38L35.33 27.16H35.37L37.27 32.38H33.43Z" fill="#0E0F0F"/>
</svg>
