<svg width="34" height="34" viewBox="0 0 34 34" fill="none" xmlns="http://www.w3.org/2000/svg">
<path d="M2.13477 16.6982C2.13477 8.3137 9.01796 1.59473 17.2432 1.59473C25.7729 1.59473 32.1749 8.43581 32.3516 16.7135C32.3432 25.0909 25.4633 31.8016 17.2432 31.8016C8.84428 31.8016 2.13477 25.0935 2.13477 16.6982Z" fill="#0078C5" stroke="#A7BDE5" stroke-width="3"/>
<path d="M7.8 24H15.52L16.36 21.68H13.2V10H8V12.32H10.58V21.68H7.8V24ZM21.7545 24.24C24.5945 24.24 27.0145 22.32 27.0145 19.64C27.0145 17.16 25.0745 15.64 23.1545 15.4V15.36L26.7345 11.78V10H17.6145V12.32H23.3745L19.9945 15.7V17.7C20.4145 17.58 20.8945 17.52 21.3545 17.52C22.8345 17.52 24.2545 18.16 24.2545 19.62C24.2545 20.9 23.1945 21.82 21.6745 21.82C20.6345 21.82 19.4545 21.42 18.4945 20.52L16.7345 22.28C17.9345 23.52 19.7945 24.24 21.7545 24.24Z" fill="white"/>
</svg>
