<svg width="34" height="34" viewBox="0 0 34 34" fill="none" xmlns="http://www.w3.org/2000/svg">
<path fill-rule="evenodd" clip-rule="evenodd" d="M17.2432 0.0947266C8.20081 0.0947266 0.634766 7.47404 0.634766 16.6982C0.634766 25.9223 8.01628 33.3016 17.2432 33.3016C26.2855 33.3016 33.8516 25.9223 33.8516 16.6982C33.667 7.65852 26.6546 0.0947266 17.2432 0.0947266Z" fill="#A7BDE5"/>
<path d="M7.8 24H15.52L16.36 21.68H13.2V10H8V12.32H10.58V21.68H7.8V24ZM26.5145 24L27.3545 21.68H20.9145V21.64L23.3345 19.36C25.7545 17.08 26.7345 15.74 26.7345 13.86C26.7345 11.68 25.0145 9.76 21.8745 9.76C19.9945 9.76 18.0945 10.66 16.8545 11.9L18.5545 13.6C19.4745 12.74 20.6745 12.14 21.7945 12.14C23.0745 12.14 24.0945 12.9 24.0945 14.14C24.0945 15.2 23.5945 15.94 20.9745 18.52L17.3745 22.04V24H26.5145Z" fill="white"/>
</svg>
