<svg width="36" height="36" viewBox="0 0 36 36" fill="none" xmlns="http://www.w3.org/2000/svg">
<path d="M17.9358 2.19775C9.11452 2.19775 2.21094 9.103 2.21094 17.9264C2.21094 26.7497 9.11452 33.655 17.9358 33.655C26.7571 33.655 33.6607 26.7497 33.6607 17.9264C33.8525 9.103 26.7571 2.19775 17.9358 2.19775Z" fill="white"/>
<path d="M17.9349 0.663574C8.34649 0.663574 0.675781 8.33607 0.675781 17.9267C0.675781 27.5173 8.34649 35.1898 17.9349 35.1898C27.5233 35.1898 35.194 27.5173 35.194 17.9267C35.194 8.33607 27.5233 0.663574 17.9349 0.663574ZM11.4148 22.722V20.2284L15.8255 9.29513H19.0855L14.6749 20.0366V20.4203H19.4691V15.4331H22.7291V20.2284H25.2221L24.0715 22.722H22.5374V26.75H19.2773V22.722H11.4148Z" fill="#43B2DD"/>
</svg>
