<svg width="34" height="34" viewBox="0 0 34 34" fill="none" xmlns="http://www.w3.org/2000/svg">
<path d="M17.2454 1.91699C8.9412 1.91699 2.11328 8.7429 2.11328 17.0446C2.11328 25.3464 8.75666 32.1723 17.2454 32.1723C25.5496 32.1723 32.3775 25.5309 32.3775 17.0446C32.3775 8.55841 25.5496 1.91699 17.2454 1.91699Z" fill="white"/>
<path d="M17.0596 0.441406C7.83268 0.441406 0.451172 7.82068 0.451172 17.0448C0.451172 26.2689 7.83268 33.6481 17.0596 33.6481C26.2865 33.6481 33.668 26.2689 33.668 17.0448C33.668 7.82068 26.2865 0.441406 17.0596 0.441406ZM11.8925 11.3259V8.55865H23.5184V10.7725L17.4287 25.3465H13.9225L19.8276 11.3259H11.8925Z" fill="#8D578D"/>
</svg>
