<svg width="34" height="34" viewBox="0 0 34 34" fill="none" xmlns="http://www.w3.org/2000/svg">
<path d="M16.8753 2.11816C8.57107 2.11816 1.92773 8.944 1.92773 17.0613C1.92773 25.363 8.38653 32.1889 16.8753 32.1889C25.364 32.1889 32.0074 25.363 32.0074 17.0613C31.8229 8.75951 25.1795 2.11816 16.8753 2.11816Z" fill="white"/>
<path d="M16.875 0.458008C7.83267 0.458008 0.451172 7.83737 0.451172 16.877C0.451172 26.1012 7.83267 33.6649 16.875 33.6649C26.1019 33.6649 33.668 26.2856 33.668 16.877C33.4834 7.83737 26.1019 0.458008 16.875 0.458008ZM17.0596 25.7322C12.8152 25.7322 10.6007 22.4115 10.6007 19.2753C10.6007 16.6925 11.708 14.6632 14.2915 11.3425L16.875 8.02181L20.3813 8.5753L15.5833 14.2942C16.3214 14.1097 17.2441 13.7408 17.9823 13.7408C20.7503 13.7408 23.5184 15.7701 23.5184 19.2753C23.3339 22.9649 20.7503 25.7322 17.0596 25.7322ZM17.0596 16.6925C15.3987 16.6925 14.107 18.1684 14.107 19.6443C14.107 21.4891 15.5833 22.9649 17.0596 22.9649C18.9049 22.9649 20.0122 21.4891 20.0122 19.6443C20.0122 18.1684 18.9049 16.6925 17.0596 16.6925Z" fill="#DD8144"/>
</svg>
