<svg width="34" height="34" viewBox="0 0 34 34" fill="none" xmlns="http://www.w3.org/2000/svg">
<path d="M16.6927 1.65283C8.75759 1.65283 1.92969 8.4787 1.92969 16.4115C1.92969 24.8977 8.75759 31.7235 16.6927 31.7235C25.1815 31.7235 32.0093 24.8977 32.0093 16.4115C32.0093 8.4787 24.9969 1.65283 16.6927 1.65283Z" fill="white"/>
<path d="M16.6915 0.177246C7.64913 0.177246 0.267578 7.55655 0.267578 16.5962C0.267578 26.0048 7.64913 33.3842 16.6915 33.3842C26.1029 33.3842 33.4844 26.0048 33.4844 16.5962C33.4844 7.55655 26.1029 0.177246 16.6915 0.177246ZM12.4471 10.6928V8.11004H18.7214V22.3152H22.4121L21.3049 24.8979H11.8935V22.3152H15.5842V10.6928H12.4471Z" fill="#D24A43"/>
</svg>
