<svg width="34" height="35" viewBox="0 0 34 35" fill="none" xmlns="http://www.w3.org/2000/svg">
<path d="M17.2433 1.65039C8.38548 1.65039 1.37305 8.66081 1.37305 17.516C1.37305 26.3712 8.38548 33.3815 17.2433 33.3815C26.1011 33.3815 33.1135 26.3712 33.1135 17.516C33.1135 8.66081 26.1011 1.65039 17.2433 1.65039Z" fill="white"/>
<path d="M17.2432 0.912598C15.0287 0.912598 12.8143 1.28158 10.7843 2.204C8.75443 3.12641 7.0936 4.23323 5.43276 5.70909C3.95646 7.18495 2.6647 9.02981 1.92655 11.0591C1.00386 13.0884 0.634766 15.3022 0.634766 17.516C0.634766 19.7298 1.00386 21.9436 1.92655 23.9729C2.84924 26.0022 3.95646 27.6624 5.43276 29.3228C6.90906 30.7986 8.75443 32.0901 10.7843 32.828C12.8143 33.7504 15.0287 34.1194 17.2432 34.1194C19.4576 34.1194 21.6721 33.7504 23.702 32.828C25.7319 31.9056 27.3927 30.7986 29.0536 29.3228C30.5299 27.8469 31.8216 26.0022 32.5598 23.9729C33.4825 21.9436 33.8516 19.7298 33.8516 17.516C33.8516 15.3022 33.4825 13.0884 32.5598 11.0591C31.6371 9.02981 30.5299 7.36943 29.0536 5.70909C27.5773 4.23323 25.7319 2.94192 23.702 2.204C21.6721 1.28158 19.4576 0.912598 17.2432 0.912598ZM17.2432 32.6435C15.2132 32.6435 13.1833 32.2745 11.3379 31.5366C9.49256 30.7987 7.83176 29.6918 6.54 28.2159C5.06369 26.7401 3.95643 25.2643 3.21828 23.4194C2.48013 21.5746 2.11105 19.5453 2.11105 17.516C2.11105 15.4867 2.48013 13.4574 3.21828 11.6125C3.95643 9.76772 5.06369 8.10742 6.54 6.81605C8.0163 5.34019 9.49256 4.23321 11.3379 3.49528C13.1833 2.75735 15.2132 2.38843 17.2432 2.38843C19.2731 2.38843 21.303 2.75735 23.1484 3.49528C24.9938 4.23321 26.6546 5.34019 27.9463 6.81605C29.4226 8.29191 30.5299 9.76772 31.268 11.6125C32.0062 13.4574 32.3753 15.4867 32.3753 17.516C32.3753 19.5453 32.0062 21.5746 31.268 23.4194C30.5299 25.2643 29.4226 26.9246 27.9463 28.2159C26.47 29.6918 24.9938 30.7987 23.1484 31.5366C21.303 32.2745 19.2731 32.6435 17.2432 32.6435Z" fill="#D24A43"/>
<path d="M17.2438 4.23291C15.3984 4.23291 13.7376 4.60183 12.0768 5.33976C10.4159 6.0777 9.12411 7.00011 7.83235 8.10701C6.54058 9.39839 5.61789 10.6899 5.06427 12.3502C4.32612 14.0106 3.95703 15.6709 3.95703 17.5157C3.95703 19.3605 4.32612 21.0209 5.06427 22.6812C5.80242 24.3416 6.72512 25.6329 7.83235 26.9243C9.12411 28.2157 10.4159 29.1381 12.0768 29.6916C13.7376 30.4295 15.3984 30.7985 17.2438 30.7985C19.0892 30.7985 20.75 30.4295 22.4109 29.6916C24.0717 28.9536 25.3635 28.0312 26.6553 26.9243C27.947 25.6329 28.8697 24.3416 29.4233 22.6812C30.1615 21.0209 30.5306 19.3605 30.5306 17.5157C30.5306 15.6709 30.1615 14.0106 29.4233 12.3502C28.6852 10.6899 27.7625 9.39839 26.6553 8.10701C25.3635 6.81563 24.0717 5.89321 22.4109 5.33976C20.75 4.60183 19.0892 4.23291 17.2438 4.23291ZM17.2438 29.3226C15.583 29.3226 14.1067 28.9536 12.6303 28.4002C11.154 27.8467 9.86227 26.9244 8.75504 25.8175C7.64781 24.7106 6.72513 23.4191 6.17151 21.9432C5.6179 20.4674 5.24882 18.9915 5.24882 17.3312C5.24882 15.6708 5.6179 14.195 6.17151 12.7191C6.72513 11.2432 7.64781 9.95189 8.75504 8.84499C9.86227 7.73809 11.154 6.81563 12.6303 6.26218C14.1067 5.70873 15.583 5.33976 17.2438 5.33976C18.9046 5.33976 20.381 5.70873 21.8573 6.26218C23.3336 6.81563 24.6253 7.73809 25.7326 8.84499C26.8398 9.95189 27.7625 11.2432 28.3161 12.7191C28.8697 14.195 29.2388 15.6708 29.2388 17.3312C29.2388 18.9915 28.8697 20.4674 28.3161 21.9432C27.7625 23.4191 26.8398 24.7106 25.7326 25.8175C24.6253 26.9244 23.3336 27.8467 21.8573 28.4002C20.381 29.1381 18.9046 29.3226 17.2438 29.3226Z" fill="#D24A43"/>
<path d="M13.5529 10.5059H9.30851L8.57031 12.7196H10.9693V23.973H13.5529V10.5059Z" fill="#0E0F0F"/>
<path d="M22.0399 10.5059H19.4564L15.7656 18.992V21.0212H22.2245V23.973H24.6234V21.0212H25.9152L26.6534 18.8075H24.6234V15.3023H22.2245V18.8075H18.5337L22.0399 10.5059Z" fill="#0E0F0F"/>
</svg>
