<svg width="34" height="35" viewBox="0 0 34 35" fill="none" xmlns="http://www.w3.org/2000/svg">
<path d="M16.8752 2.21875C8.94012 2.21875 1.92773 9.22913 1.92773 17.1619C1.92773 25.648 8.94012 32.1049 16.8752 32.1049C25.364 32.1049 31.8228 25.648 31.8228 17.1619C31.8228 9.22913 25.364 2.21875 16.8752 2.21875Z" fill="white"/>
<path d="M16.875 0.927734C8.01721 0.927734 0.451172 8.49149 0.451172 17.3467C0.451172 26.7554 8.01721 34.1348 16.875 34.1348C26.2864 34.1348 33.668 26.5709 33.668 17.3467C33.668 8.30701 26.2864 0.927734 16.875 0.927734ZM12.6307 13.1036L10.7853 11.2588C12.2616 9.7829 14.476 8.8605 16.875 8.8605C20.5658 8.8605 22.4112 10.7053 22.4112 13.4726C22.4112 15.8709 21.4885 17.1623 18.7204 19.9295L15.3987 22.6968H23.3338L22.4112 25.464H11.1544V23.0658L15.7678 18.8225C19.0895 15.5018 19.4586 14.5794 19.4586 13.657C19.4586 12.1812 17.9823 11.2588 16.6905 11.2588C15.3988 11.6277 14.107 11.9967 12.6307 13.1036Z" fill="#53A762"/>
</svg>
