<svg width="34" height="34" viewBox="0 0 34 34" fill="none" xmlns="http://www.w3.org/2000/svg">
<path d="M17.0618 2.13281C8.75756 2.13281 1.92969 8.95866 1.92969 17.2604C1.92969 25.5621 8.57302 32.3879 17.0618 32.3879C25.366 32.3879 32.1939 25.7466 32.1939 17.2604C32.0094 8.77418 25.366 2.13281 17.0618 2.13281Z" fill="white"/>
<path d="M16.876 0.472656C7.64909 0.472656 0.267578 7.85197 0.267578 17.0761C0.267578 26.3003 7.64909 33.6796 16.876 33.6796C26.1029 33.6796 33.4844 26.3003 33.4844 17.0761C33.4844 7.85197 26.1029 0.472656 16.876 0.472656ZM16.3224 20.2123C13.5543 20.2123 10.7863 18.183 10.7863 14.4934C10.7863 10.9882 13.3698 8.40542 17.2451 8.40542C21.3049 8.40542 23.5193 11.5416 23.5193 14.8623C23.5193 17.4451 22.5967 19.4744 19.8286 22.7951L17.2451 25.9313L13.7389 25.5623L18.9059 19.4744V19.2899C17.9832 20.0278 17.0605 20.2123 16.3224 20.2123ZM17.0605 11.1727C15.2151 11.1727 13.9234 12.6485 13.9234 14.3089C13.9234 15.9692 15.2151 17.4451 17.0605 17.4451C18.9059 17.4451 20.0131 15.9692 20.0131 14.3089C20.0131 12.464 18.9059 11.1727 17.0605 11.1727Z" fill="#ADABAC"/>
</svg>
