<svg width="34" height="34" viewBox="0 0 34 34" fill="none" xmlns="http://www.w3.org/2000/svg">
<path fill-rule="evenodd" clip-rule="evenodd" d="M17.2432 0.0947266C8.20081 0.0947266 0.634766 7.47404 0.634766 16.6982C0.634766 25.9223 8.01628 33.3016 17.2432 33.3016C26.2855 33.3016 33.8516 25.9223 33.8516 16.6982C33.667 7.65852 26.6546 0.0947266 17.2432 0.0947266Z" fill="#79BFC0"/>
<path fill-rule="evenodd" clip-rule="evenodd" d="M5.30664 11.5325H8.07467V24.8152H11.2117V8.94971H6.22932L5.30664 11.5325Z" fill="white"/>
<path fill-rule="evenodd" clip-rule="evenodd" d="M13.9824 11.5325H16.935V24.8152H20.0721V8.94971H15.0896L13.9824 11.5325Z" fill="white"/>
<path d="M24.744 25.216C25.878 25.216 26.67 24.82 27.21 24.136H27.246V25H29.46V19.186C29.46 17.062 27.966 15.766 25.644 15.766C24.366 15.766 22.944 16.234 21.972 17.098L23.34 18.466C23.916 18.07 24.708 17.746 25.572 17.746C26.472 17.746 27.21 18.196 27.21 19.15V19.402C26.67 19.33 26.004 19.294 25.554 19.294C22.746 19.294 21.594 20.77 21.594 22.228C21.594 23.92 22.944 25.216 24.744 25.216ZM25.32 23.398C24.438 23.398 23.88 22.84 23.88 22.21C23.88 21.472 24.528 20.986 25.878 20.986C26.256 20.986 26.778 21.04 27.21 21.112V21.472C27.21 22.75 26.274 23.398 25.32 23.398Z" fill="white"/>
</svg>
