<svg width="34" height="34" viewBox="0 0 34 34" fill="none" xmlns="http://www.w3.org/2000/svg">
<path d="M16.5052 2.00391C8.38553 2.00391 1.74219 8.6453 1.74219 16.7626C1.74219 25.4333 8.38553 31.8901 16.5052 31.8901C25.1784 31.8901 31.6372 25.2488 31.6372 16.7626C31.6372 8.46081 25.1784 2.00391 16.5052 2.00391Z" fill="white"/>
<path d="M16.5039 0.34375C10.7832 0.34375 5.43164 3.66441 2.47904 8.09199C0.818205 10.4903 0.0800781 13.811 0.0800781 16.7627C0.0800781 26.1713 7.46156 33.5507 16.5039 33.5507C25.9153 33.5507 33.2968 26.1713 33.2968 16.7627C33.2968 13.811 32.5586 10.6748 30.8978 8.09199C27.9452 3.47992 22.5936 0.34375 16.5039 0.34375ZM11.5214 10.8592V8.46098H22.2246V10.4903L18.1647 14.5489C20.5637 14.9179 23.1473 16.9472 23.1473 19.8989C23.1473 23.2196 19.8256 25.6179 16.5039 25.6179C14.1049 25.6179 11.5214 24.3265 10.4141 23.2196L12.4441 20.8213C13.7358 22.1127 14.843 22.4817 16.1348 22.4817C18.1647 22.4817 19.4565 21.7437 19.4565 20.0834C19.4565 18.0541 17.7956 17.1316 16.1348 17.1316C15.3967 17.1316 14.843 17.1317 14.474 17.5006V15.1024L18.5338 11.0437H11.5214V10.8592Z" fill="#4C75A5"/>
</svg>
