<svg width="106" height="90" viewBox="0 0 106 90" fill="none" xmlns="http://www.w3.org/2000/svg">
<rect width="106" height="90" rx="10" fill="white"/>
<path d="M31.0644 41.0136C31.1155 46.1378 35.5649 47.8459 35.6159 47.8684C35.5751 47.992 34.9016 50.2957 33.2688 52.6892C31.8502 54.7569 30.3909 56.8134 28.0743 56.8583C25.8088 56.9033 25.074 55.5098 22.4819 55.5098C19.8898 55.5098 19.0734 56.8134 16.9303 56.892C14.6954 56.9707 13.0013 54.6558 11.5726 52.5993C8.65394 48.3965 6.42921 40.7102 9.41932 35.5297C10.8991 32.9563 13.5524 31.3269 16.4405 31.282C18.6346 31.237 20.696 32.7541 22.0329 32.7541C23.3698 32.7541 25.8802 30.9336 28.5234 31.2033C29.6255 31.2483 32.7279 31.6528 34.7281 34.5633C34.5648 34.6644 31.0236 36.7209 31.0644 41.0136ZM26.7885 28.4164C27.9723 26.978 28.7683 24.989 28.554 23C26.8497 23.0674 24.7781 24.135 23.5637 25.5734C22.4615 26.8432 21.5022 28.8659 21.7675 30.8212C23.6657 30.9561 25.6047 29.8436 26.7885 28.4164ZM43.9331 25.9554C44.8924 25.7869 45.8619 25.652 46.8416 25.5397C48.005 25.416 49.1684 25.3486 50.3318 25.3599C52.1483 25.3599 53.7097 25.5846 55.0261 26.0229C56.3426 26.4611 57.4243 27.1017 58.2714 27.922C59.0061 28.6637 59.5878 29.5514 59.9756 30.5291C60.3838 31.5404 60.5879 32.6979 60.5879 34.0014C60.5879 35.5859 60.3124 36.9793 59.7511 38.1593C59.2102 39.3167 58.4346 40.3393 57.4652 41.1596C56.4957 41.9687 55.3425 42.5643 54.0158 42.9689C52.6891 43.3622 51.2298 43.5645 49.6582 43.5645C48.2397 43.5645 47.0457 43.4633 46.0762 43.2498V56.42H43.9433L43.9331 25.9554ZM46.066 41.3282C46.5763 41.4743 47.158 41.5867 47.7907 41.6429C48.4234 41.699 49.1071 41.7328 49.8317 41.7328C52.5565 41.7328 54.6587 41.0922 56.1589 39.8112C57.6591 38.5301 58.404 36.6534 58.404 34.1812C58.404 32.9901 58.2101 31.9562 57.8121 31.0685C57.4345 30.2144 56.8631 29.4615 56.1385 28.8996C55.4139 28.3378 54.5465 27.9107 53.5566 27.6186C52.5565 27.3264 51.4543 27.1803 50.2399 27.1803C49.2704 27.1803 48.4438 27.214 47.7499 27.2927C47.0559 27.3714 46.4946 27.45 46.0762 27.5399L46.066 41.3282ZM77.5489 51.2059C77.5489 52.0936 77.5591 52.9702 77.5897 53.8579C77.6203 54.7457 77.7122 55.5997 77.8652 56.42H75.865L75.5487 53.3073H75.4568C75.1813 53.7343 74.8343 54.1613 74.4159 54.5883C73.9975 55.0154 73.4974 55.4087 72.9464 55.757C72.3851 56.1054 71.7524 56.3863 71.038 56.5998C70.2726 56.8246 69.4868 56.9257 68.701 56.9145C67.6397 56.9145 66.711 56.7347 65.9048 56.3863C65.0986 56.038 64.4455 55.5772 63.9352 55.0154C63.425 54.4535 63.027 53.7905 62.782 53.0713C62.5269 52.3633 62.3942 51.6217 62.3942 50.88C62.3942 48.2842 63.476 46.2951 65.6395 44.8905C67.803 43.4858 71.0584 42.8115 75.416 42.879V42.2834C75.416 41.699 75.365 41.036 75.2527 40.2944C75.1507 39.5415 74.9057 38.8223 74.5486 38.1705C74.1812 37.4963 73.6403 36.9344 72.9157 36.4849C72.1912 36.0242 71.2013 35.7994 69.9665 35.7994C69.0276 35.7994 68.0989 35.9455 67.1805 36.2377C66.262 36.5298 65.415 36.9344 64.6598 37.4513L63.976 35.8556C64.9455 35.1813 65.9456 34.7094 66.9661 34.4172C68.0173 34.125 69.099 33.9789 70.191 33.9789C71.7013 33.9789 72.9362 34.2374 73.8852 34.7543C74.8343 35.2712 75.5895 35.9455 76.1304 36.7658C76.6814 37.5974 77.059 38.5413 77.2427 39.5302C77.4366 40.5304 77.5387 41.553 77.5387 42.5756L77.5489 51.2059ZM75.416 44.6657C74.2118 44.632 73.0076 44.677 71.8034 44.8006C70.5482 44.9242 69.395 45.1939 68.3336 45.5984C67.2723 46.0142 66.3947 46.6098 65.7007 47.4076C65.0068 48.2055 64.6598 49.2506 64.6598 50.5654C64.6598 52.1161 65.0986 53.2623 65.9762 53.9928C66.8539 54.7232 67.8336 55.094 68.9255 55.094C69.8032 55.094 70.589 54.9704 71.2829 54.7232C71.9769 54.476 72.579 54.1501 73.0994 53.7455C73.6199 53.341 74.0485 52.869 74.3955 52.3521C74.7425 51.8352 75.0078 51.2958 75.1915 50.7452C75.3446 50.1383 75.416 49.6888 75.416 49.4191V44.6657ZM81.7126 34.4622L87.2438 48.7337C87.5499 49.5428 87.8357 50.3518 88.1112 51.1834C88.3868 52.0262 88.6215 52.7904 88.8358 53.4983H88.9276C89.1419 52.8241 89.3766 52.0712 89.6522 51.2396C89.9277 50.3968 90.2237 49.5428 90.5604 48.655L95.7345 34.4734H98L91.6932 50.5766C91.1115 52.1274 90.5196 53.6781 89.8971 55.2176C89.3869 56.4987 88.8154 57.7461 88.1928 58.9709C87.6724 59.9935 87.0907 60.9824 86.4478 61.9264C85.8763 62.7579 85.2232 63.5109 84.4782 64.1626C83.6312 64.9268 82.8556 65.4774 82.1412 65.837C81.4268 66.1853 80.9574 66.4101 80.7125 66.5L79.9879 64.7132C80.6104 64.4323 81.2125 64.1064 81.8044 63.7581C82.5188 63.331 83.1719 62.8029 83.7536 62.2073C84.2945 61.6567 84.8966 60.9375 85.5497 60.0385C86.2029 59.1395 86.7845 58.0495 87.2948 56.7684C87.4785 56.2852 87.5703 55.9593 87.5703 55.802C87.5703 55.5885 87.4785 55.2738 87.2948 54.8468L79.447 34.4959L81.7126 34.4622Z" fill="#0E0F0F"/>
</svg>
