<svg width="50" height="42" viewBox="0 0 50 42" fill="none" xmlns="http://www.w3.org/2000/svg">
<path d="M29.565 41.9272C35.9403 41.9272 40.9413 39.9721 44.5634 36.0142C48.1934 32.0564 50 25.8823 50 17.4709L50 0.000102997H28.9991H28.9843V18.8711L39.1272 18.8711C39.1272 23.4922 38.3726 26.9282 36.8928 29.1778C35.4136 31.4274 32.9738 32.5588 29.565 32.5588V41.9272ZM0.744858 41.9272C3.93235 41.9272 6.77075 41.4582 9.26425 40.4974C11.7579 39.5365 13.9001 38.0644 15.6541 36.0589C17.4079 34.0457 18.7523 31.4921 19.6902 28.3884C20.6206 25.277 21.0903 21.6499 21.0903 17.4709V0.000102997L0 0.000102997L0 18.8711L10.1282 18.8711C10.1282 23.4922 9.38835 26.9282 7.90882 29.1778C6.42953 31.4274 4.03913 32.5588 0.744858 32.5588V41.9272Z" fill="white"/>
</svg>
