<svg width="106" height="90" viewBox="0 0 106 90" fill="none" xmlns="http://www.w3.org/2000/svg">
<rect width="106" height="90" rx="10" fill="white"/>
<path d="M50.567 45.8899V56.6153H47.2402V30.1131H56.0573C58.1799 30.062 60.2413 30.8886 61.7619 32.4092C63.3028 33.8379 64.1805 35.8687 64.1396 38.0015C64.1805 40.1445 63.313 42.1957 61.7619 43.6244C60.2209 45.1348 58.3126 45.8797 56.0573 45.8797L50.567 45.8899ZM50.567 33.3787V42.6345H56.139C57.3738 42.6754 58.5677 42.1753 59.4249 41.2671C61.17 39.5322 61.2108 36.6646 59.5066 34.8788C59.476 34.8482 59.4454 34.8176 59.4249 34.7869C58.5779 33.8583 57.3738 33.348 56.139 33.3787H50.567ZM71.8138 37.8892C74.2731 37.8892 76.2121 38.5628 77.6306 39.9098C79.0491 41.2569 79.7634 43.104 79.7634 45.4409V56.6153H76.5795V54.0947H76.4366C75.0589 56.1663 73.2322 57.2072 70.9463 57.2072C68.9972 57.2072 67.3644 56.6153 66.048 55.4316C64.7723 54.3294 64.0478 52.6966 64.0784 50.9924C64.0784 49.1147 64.7723 47.6248 66.1602 46.5124C67.5481 45.4001 69.3952 44.849 71.7015 44.849C73.6711 44.849 75.3038 45.2164 76.5795 45.9614V45.1858C76.5897 44.0224 76.0794 42.9203 75.212 42.1753C74.3344 41.3691 73.1914 40.9201 72.0077 40.9405C70.1504 40.9405 68.6808 41.7467 67.5991 43.3489L64.6703 41.461C66.2725 39.073 68.6502 37.8892 71.8138 37.8892ZM67.5073 51.0638C67.5073 51.9415 67.9155 52.7681 68.6094 53.2885C69.3442 53.8804 70.2524 54.1968 71.1913 54.1763C72.5893 54.1763 73.9364 53.6049 74.9263 52.5844C76.0284 51.5231 76.5795 50.2781 76.5795 48.8494C75.5386 48.0023 74.0997 47.5839 72.2424 47.5839C70.8953 47.5839 69.7626 47.9207 68.8645 48.584C67.9563 49.2576 67.5073 50.074 67.5073 51.0638ZM97.9997 38.4811L86.9069 64.6058H83.478L87.5906 55.4622L80.2941 38.4811H83.9066L89.1826 51.5129H89.254L94.3871 38.4913H97.9997V38.4811Z" fill="#5F6368"/>
<path d="M37.1381 43.5735C37.1381 42.5326 37.0564 41.5019 36.8829 40.4814H22.8613V46.3391H30.8926C30.5559 48.227 29.4945 49.9006 27.923 50.9619V54.7684H32.7193C35.5155 52.1253 37.1381 48.2066 37.1381 43.5735Z" fill="#5C83C2"/>
<path d="M22.8606 58.4424C26.8712 58.4424 30.249 57.0954 32.7084 54.7686L27.9121 50.9622C26.5752 51.8908 24.8608 52.4215 22.8504 52.4215C18.9725 52.4215 15.6865 49.7478 14.5028 46.1353H9.58398V50.054C12.1046 55.2075 17.2479 58.4424 22.8606 58.4424Z" fill="#52A261"/>
<path d="M14.5235 46.1349C13.901 44.247 13.901 42.1958 14.5235 40.3079V36.3892H9.58432C7.47189 40.6854 7.47189 45.7573 9.58432 50.0638L14.5235 46.1349Z" fill="#EFBA44"/>
<path d="M22.8606 34.032C24.9833 34.0014 27.0242 34.8178 28.5652 36.3179L32.8105 31.9706C30.1163 29.3785 26.5548 27.96 22.8606 28.0009C17.2479 28.0009 12.1046 31.246 9.58398 36.3893L14.5232 40.308C15.6967 36.7057 18.9929 34.032 22.8606 34.032Z" fill="#D45347"/>
</svg>
