<svg width="106" height="90" viewBox="0 0 106 90" fill="none" xmlns="http://www.w3.org/2000/svg">
<rect width="106" height="90" rx="10" fill="white"/>
<path fill-rule="evenodd" clip-rule="evenodd" d="M58.2087 31.6947C58.2087 39.8037 51.6367 46.3757 43.5277 46.3757C35.4187 46.3757 28.8467 39.8037 28.8467 31.6947C28.8467 23.5857 35.4187 17.0137 43.5277 17.0137C51.6367 17.0004 58.2087 23.5857 58.2087 31.6947Z" fill="#E31E24"/>
<path fill-rule="evenodd" clip-rule="evenodd" d="M63.2302 17C59.4407 17 55.9824 18.4442 53.3722 20.8027C52.8422 21.2797 52.3519 21.8097 51.8882 22.353H54.8562C55.2669 22.8432 55.6379 23.36 55.9692 23.9033H50.7619C50.4439 24.4068 50.1657 24.9235 49.9139 25.4668H56.8039C57.0424 25.9703 57.2544 26.487 57.4267 27.017H49.2912C49.1189 27.5205 48.9732 28.0505 48.8672 28.5672H57.8507C58.0627 29.5742 58.182 30.6077 58.182 31.681C58.182 33.3107 57.917 34.8743 57.4267 36.345H49.2912C49.4767 36.875 49.6754 37.3918 49.9139 37.8953H56.8039C56.5522 38.4385 56.2607 38.9553 55.9559 39.4588H50.7487C51.0799 40.002 51.4642 40.5188 51.8617 41.009H54.8297C54.3659 41.5655 53.8757 42.0823 53.3457 42.5725C55.9427 44.931 59.401 46.3753 63.2037 46.3753C71.3127 46.3753 77.8847 39.8033 77.8847 31.6943C77.9245 23.5852 71.3392 17 63.2302 17Z" fill="#F7A707"/>
<path fill-rule="evenodd" clip-rule="evenodd" d="M75.9639 39.8696C75.9639 39.6046 76.1759 39.3926 76.4409 39.3926C76.7059 39.3926 76.9179 39.6046 76.9179 39.8696C76.9179 40.1346 76.7059 40.3466 76.4409 40.3466C76.1759 40.3466 75.9639 40.1346 75.9639 39.8696ZM76.4409 40.2406C76.6396 40.2406 76.7986 40.0816 76.7986 39.8828C76.7986 39.6841 76.6396 39.5251 76.4409 39.5251C76.2421 39.5251 76.0831 39.6841 76.0831 39.8828C76.0699 40.0683 76.2421 40.2406 76.4409 40.2406ZM76.3746 40.0816V39.9226H76.4409L76.5071 40.0816H76.6131L76.5336 39.8961C76.5734 39.8828 76.5999 39.8298 76.5999 39.7901C76.5999 39.7503 76.5866 39.7106 76.5469 39.6841C76.5204 39.6708 76.4806 39.6708 76.4409 39.6708H76.2686V40.0816H76.3746ZM76.3746 39.8431H76.4276C76.4409 39.8431 76.4674 39.8431 76.4806 39.8431C76.4939 39.8298 76.5071 39.8166 76.5071 39.7901C76.5071 39.7768 76.4939 39.7503 76.4806 39.7503C76.4674 39.7371 76.4409 39.7371 76.4144 39.7371H76.3614V39.8431H76.3746Z" fill="#373435"/>
<path fill-rule="evenodd" clip-rule="evenodd" d="M36.1609 36.0003H34.5842L35.4852 30.2763L33.4447 36.0003H32.3582L32.2257 30.3028L31.2717 36.0003H29.7744L31.0199 28.5405H33.3122L33.4579 32.7143L34.8492 28.5405H37.4064L36.1609 36.0003Z" fill="#373435"/>
<path fill-rule="evenodd" clip-rule="evenodd" d="M40.096 33.2973C39.9237 33.2841 39.8575 33.2708 39.7382 33.2708C38.8372 33.2708 38.3867 33.5888 38.3867 34.1983C38.3867 34.5826 38.612 34.8211 38.9565 34.8211C39.6057 34.8078 40.0695 34.1983 40.096 33.2973ZM41.2487 36.0003H39.9237L39.9502 35.3776C39.5527 35.8678 39.0095 36.1063 38.2807 36.1063C37.4195 36.1063 36.8232 35.4306 36.8232 34.4501C36.8232 32.9793 37.8567 32.1181 39.619 32.1181C39.7912 32.1181 40.0297 32.1313 40.2682 32.1578C40.3212 31.9591 40.3345 31.8663 40.3345 31.7603C40.3345 31.3628 40.0562 31.2038 39.3142 31.2038C38.5325 31.1906 37.8965 31.3893 37.6315 31.4821C37.6447 31.3761 37.8567 30.1173 37.8567 30.1173C38.6517 29.8921 39.1817 29.7993 39.7647 29.7993C41.1427 29.7993 41.8582 30.4221 41.8582 31.5748C41.8582 31.8796 41.8052 32.2771 41.7257 32.7806C41.5932 33.6551 41.3017 35.5366 41.2487 36.0003Z" fill="#373435"/>
<path fill-rule="evenodd" clip-rule="evenodd" d="M42.2027 31.8531C42.2027 32.6216 42.5737 33.1516 43.4217 33.5491C44.0709 33.8539 44.1769 33.9466 44.1769 34.2116C44.1769 34.5959 43.8854 34.7681 43.2627 34.7681C42.7857 34.7681 42.3484 34.6886 41.8317 34.5296C41.8317 34.5296 41.6197 35.8679 41.6064 35.9209C41.9642 36.0004 42.2954 36.0799 43.2627 36.1064C44.9454 36.1064 45.7272 35.4704 45.7272 34.0791C45.7272 33.2444 45.3959 32.7541 44.6009 32.3964C43.9384 32.0916 43.8589 32.0254 43.8589 31.7339C43.8589 31.4026 44.1239 31.2436 44.6407 31.2436C44.9454 31.2436 45.3827 31.2701 45.7802 31.3364L46.0054 29.9319C45.5947 29.8656 44.9719 29.8126 44.6009 29.8126C42.8254 29.7994 42.2027 30.7401 42.2027 31.8531Z" fill="#373435"/>
<path fill-rule="evenodd" clip-rule="evenodd" d="M48.3376 35.908C47.9004 36.0538 47.5559 36.1068 47.1981 36.1068C46.3766 36.1068 45.9394 35.643 45.9394 34.7818C45.9261 34.5168 46.0586 33.8145 46.1514 33.1653C46.2441 32.5955 46.8404 29.0312 46.8404 29.0312H48.4171L48.2316 29.9455H49.1856L48.9736 31.403H48.0196C47.8341 32.5558 47.5691 33.9868 47.5691 34.1855C47.5691 34.5035 47.7414 34.636 48.1124 34.636C48.2979 34.636 48.4304 34.6228 48.5364 34.583L48.3376 35.908Z" fill="#373435"/>
<path fill-rule="evenodd" clip-rule="evenodd" d="M53.1999 35.8546C52.6567 36.0268 52.1267 36.1063 51.5702 36.0931C49.7947 36.0931 48.8672 35.1656 48.8672 33.3901C48.8672 31.3231 50.0464 29.7993 51.6364 29.7993C52.9482 29.7993 53.7829 30.6606 53.7829 31.9856C53.7829 32.4228 53.7299 32.8601 53.5842 33.4696H50.4307C50.3247 34.3573 50.8944 34.7151 51.8087 34.7151C52.3784 34.7151 52.8952 34.5958 53.4517 34.3308L53.1999 35.8546ZM52.2989 32.2638C52.3122 32.1313 52.4579 31.1773 51.5702 31.1773C51.0667 31.1773 50.7089 31.5616 50.5499 32.2638H52.2989Z" fill="#373435"/>
<path fill-rule="evenodd" clip-rule="evenodd" d="M60.9519 29.9585C61.4024 29.9585 61.8131 30.0778 62.3696 30.356L62.6346 28.7395C62.4094 28.6468 61.5746 28.1035 60.8856 28.1035C59.8124 28.1035 58.9114 28.6335 58.2886 29.508C57.3611 29.2033 56.9769 29.826 56.5131 30.4355L56.1024 30.5283C56.1289 30.3295 56.1554 30.1175 56.1554 29.9188H54.6846C54.4859 31.787 54.1281 33.695 53.8631 35.5633L53.7969 35.974H55.3869C55.6519 34.2515 55.7976 33.1385 55.8904 32.3833L56.4999 32.052C56.5926 31.7208 56.8709 31.6015 57.4406 31.6148C57.3611 32.0123 57.3214 32.423 57.3214 32.8603C57.3214 34.8345 58.3946 36.08 60.1039 36.08C60.5411 36.08 60.9254 36.027 61.5084 35.8548L61.7866 34.1588C61.2566 34.4238 60.8194 34.543 60.4351 34.543C59.5076 34.543 58.9511 33.854 58.9511 32.7278C58.9246 31.1113 59.7594 29.9585 60.9519 29.9585Z" fill="#373435"/>
<path fill-rule="evenodd" clip-rule="evenodd" d="M65.2048 33.2973C65.0326 33.2841 64.9663 33.2708 64.8471 33.2708C63.9461 33.2708 63.4823 33.5888 63.4823 34.1983C63.4823 34.5826 63.7076 34.8211 64.0521 34.8211C64.7013 34.8078 65.1783 34.1983 65.2048 33.2973ZM66.3576 36.0003H65.0458L65.0723 35.3776C64.6748 35.8678 64.1316 36.1063 63.4028 36.1063C62.5416 36.1063 61.9453 35.4306 61.9453 34.4501C61.9453 32.9793 62.9656 32.1181 64.7411 32.1181C64.9266 32.1181 65.1518 32.1313 65.3903 32.1578C65.4433 31.9591 65.4566 31.8663 65.4566 31.7603C65.4566 31.3628 65.1783 31.2038 64.4231 31.2038C63.6413 31.1906 63.0053 31.3893 62.7403 31.4821C62.7536 31.3761 62.9656 30.1173 62.9656 30.1173C63.7606 29.8921 64.2773 29.7993 64.8736 29.7993C66.2383 29.7993 66.9671 30.4221 66.9671 31.5748C66.9803 31.8796 66.9141 32.2771 66.8478 32.7806C66.7021 33.6551 66.3973 35.5366 66.3576 36.0003Z" fill="#373435"/>
<path fill-rule="evenodd" clip-rule="evenodd" d="M74.4402 28.5405L74.0825 30.7003C73.6452 30.1305 73.1815 29.7065 72.5587 29.7065C71.7505 29.7065 71.0217 30.316 70.5447 31.217C69.869 31.0713 69.1932 30.846 69.1932 30.846V30.8593C69.2462 30.3558 69.2727 30.051 69.2595 29.945H67.7887C67.59 31.8133 67.2322 33.7213 66.9539 35.5895L66.8877 36.0003H68.4777C68.6897 34.609 68.862 33.443 68.9812 32.5155C69.5245 32.0253 69.8027 31.6013 70.346 31.6278C70.1075 32.2108 69.9617 32.8998 69.9617 33.5888C69.9617 35.0993 70.7302 36.093 71.883 36.093C72.466 36.093 72.9165 35.8943 73.3537 35.4305L73.2742 35.987H74.7847L76.0037 28.5405H74.4402ZM72.4527 34.5958C71.9095 34.5958 71.6445 34.185 71.6445 33.4033C71.6445 32.2108 72.148 31.3628 72.8767 31.3628C73.4332 31.3628 73.7247 31.7735 73.7247 32.542C73.7115 33.761 73.1947 34.5958 72.4527 34.5958Z" fill="#373435"/>
<path fill-rule="evenodd" clip-rule="evenodd" d="M36.6248 35.55H35.0348L35.949 29.826L33.9085 35.55H32.822L32.6895 29.8658L31.7355 35.55H30.2383L31.4838 28.1035H33.776L33.8423 32.7145L35.3925 28.1035H37.8703L36.6248 35.55Z" fill="#FEFEFE"/>
<path fill-rule="evenodd" clip-rule="evenodd" d="M40.5599 32.8599C40.3876 32.8466 40.3214 32.8334 40.2021 32.8334C39.3011 32.8334 38.8374 33.1381 38.8374 33.7609C38.8374 34.1451 39.0626 34.3836 39.4071 34.3836C40.0564 34.3704 40.5201 33.7476 40.5599 32.8599ZM41.7126 35.5496H40.3876L40.4141 34.9269C40.0034 35.4171 39.4734 35.6556 38.7446 35.6556C37.8834 35.6556 37.2871 34.9799 37.2871 33.9994C37.2871 32.5286 38.3206 31.6674 40.0829 31.6674C40.2684 31.6674 40.4936 31.6806 40.7321 31.7071C40.7851 31.5084 40.7851 31.4156 40.7851 31.3096C40.7851 30.9121 40.5069 30.7664 39.7649 30.7664C38.9831 30.7531 38.3339 30.9519 38.0821 31.0314C38.0954 30.9386 38.2941 29.6666 38.2941 29.6666C39.0891 29.4414 39.6191 29.3486 40.2021 29.3486C41.5669 29.3486 42.2956 29.9581 42.2956 31.1241C42.2956 31.4421 42.2426 31.8131 42.1631 32.3166C42.0439 33.2176 41.7524 35.0991 41.7126 35.5496Z" fill="#FEFEFE"/>
<path fill-rule="evenodd" clip-rule="evenodd" d="M42.6666 31.416C42.6666 32.1845 43.0376 32.7145 43.8856 33.112C44.5348 33.4167 44.6276 33.5095 44.6276 33.7877C44.6276 34.1587 44.3361 34.331 43.7133 34.331C43.2363 34.331 42.7991 34.2515 42.2823 34.0925C42.2823 34.0925 42.0703 35.4307 42.0703 35.497C42.4281 35.5765 42.7593 35.6427 43.7266 35.6825C45.4093 35.6825 46.1911 35.0465 46.1911 33.6552C46.1911 32.8205 45.8731 32.3435 45.0648 31.9725C44.4023 31.6677 44.3228 31.6015 44.3228 31.31C44.3228 30.9787 44.5878 30.8197 45.1046 30.8197C45.4226 30.8197 45.8466 30.8595 46.2573 30.9125L46.4826 29.508C46.0718 29.4417 45.4491 29.3887 45.0781 29.3887C43.2761 29.3622 42.6666 30.2897 42.6666 31.416Z" fill="#FEFEFE"/>
<path fill-rule="evenodd" clip-rule="evenodd" d="M48.8015 35.4706C48.3643 35.6031 48.0198 35.6693 47.662 35.6693C46.8538 35.6693 46.4033 35.1923 46.4033 34.3311C46.39 34.0661 46.5225 33.3506 46.6153 32.7146C46.708 32.1448 47.3043 28.5806 47.3043 28.5806H48.8943L48.7088 29.5081H49.517L49.305 30.9656H48.4835C48.298 32.1183 48.033 33.5493 48.033 33.7481C48.033 34.0661 48.2053 34.1986 48.5763 34.1986C48.7618 34.1986 48.8943 34.1853 49.0135 34.1456L48.8015 35.4706Z" fill="#FEFEFE"/>
<path fill-rule="evenodd" clip-rule="evenodd" d="M53.6511 35.4175C53.1079 35.5765 52.5779 35.6692 52.0214 35.6692C50.2459 35.6692 49.3184 34.7417 49.3184 32.9662C49.3184 30.8992 50.4976 29.3755 52.0876 29.3755C53.3994 29.3755 54.2341 30.2235 54.2341 31.5617C54.2341 31.999 54.1679 32.4362 54.0354 33.0457H50.8819C50.7759 33.9202 51.3324 34.2912 52.2599 34.2912C52.8296 34.2912 53.3331 34.172 53.9029 33.907L53.6511 35.4175ZM52.7634 31.8267C52.7766 31.6942 52.9224 30.7402 52.0214 30.7402C51.5179 30.7402 51.1601 31.1245 51.0144 31.8267H52.7634Z" fill="#FEFEFE"/>
<path fill-rule="evenodd" clip-rule="evenodd" d="M55.135 29.4946C54.9362 31.3628 54.5785 33.2709 54.3002 35.1391L54.2207 35.5499H55.824C56.3937 31.8399 56.5262 31.1243 57.4272 31.2171C57.5597 30.4618 57.8247 29.7993 58.0367 29.4681C57.361 29.3223 56.99 29.7066 56.4997 30.4221C56.5395 30.1173 56.6057 29.8126 56.5925 29.5078H55.135V29.4946Z" fill="#FEFEFE"/>
<path fill-rule="evenodd" clip-rule="evenodd" d="M63.0845 28.3023L62.8194 29.9188C62.2497 29.6405 61.8389 29.5213 61.4017 29.5213C60.2092 29.5213 59.3744 30.674 59.3744 32.3038C59.3744 33.43 59.9309 34.119 60.8584 34.119C61.2559 34.119 61.6932 33.9998 62.2099 33.7348L61.9317 35.4308C61.3487 35.5898 60.9644 35.656 60.5139 35.656C58.8047 35.656 57.7314 34.4238 57.7314 32.4363C57.7314 29.773 59.2154 27.9048 61.3222 27.9048C62.0377 27.918 62.8592 28.2228 63.0845 28.3023Z" fill="#FEFEFE"/>
<path fill-rule="evenodd" clip-rule="evenodd" d="M65.6555 32.8599C65.4965 32.8466 65.417 32.8334 65.2977 32.8334C64.3967 32.8334 63.9329 33.1381 63.9329 33.7609C63.9329 34.1451 64.1582 34.3836 64.5027 34.3836C65.1652 34.3704 65.629 33.7476 65.6555 32.8599ZM66.8215 35.5496H65.5097L65.5362 34.9269C65.1387 35.4171 64.5955 35.6556 63.8667 35.6556C63.0054 35.6556 62.4092 34.9799 62.4092 33.9994C62.4092 32.5286 63.4427 31.6674 65.205 31.6674C65.3772 31.6674 65.6157 31.6806 65.8542 31.7071C65.894 31.5084 65.9205 31.4156 65.9205 31.3096C65.9205 30.9121 65.6422 30.7664 64.9002 30.7664C64.1184 30.7531 63.4692 30.9519 63.2174 31.0314C63.2307 30.9386 63.4427 29.6666 63.4427 29.6666C64.2377 29.4414 64.7545 29.3486 65.3507 29.3486C66.7155 29.3486 67.4442 29.9581 67.4442 31.1241C67.4442 31.4421 67.4045 31.8131 67.3117 32.3166C67.1527 33.2176 66.8612 35.0991 66.8215 35.5496Z" fill="#FEFEFE"/>
<path fill-rule="evenodd" clip-rule="evenodd" d="M68.2521 29.4946C68.0534 31.3628 67.6956 33.2709 67.4174 35.1391L67.3379 35.5499H68.9411C69.5109 31.8399 69.6434 31.1243 70.5444 31.2171C70.6901 30.4618 70.9551 29.7993 71.1406 29.4681C70.4781 29.3223 70.1071 29.7066 69.6169 30.4221C69.6566 30.1173 69.7229 29.8126 69.7096 29.5078H68.2521V29.4946Z" fill="#FEFEFE"/>
<path fill-rule="evenodd" clip-rule="evenodd" d="M75.262 35.55H73.7515L73.8178 34.9803C73.3805 35.444 72.93 35.656 72.347 35.656C71.1943 35.656 70.4258 34.649 70.4258 33.1385C70.4258 31.1245 71.6183 29.4285 73.0228 29.4285C73.6455 29.4285 74.1093 29.6803 74.5465 30.25L74.9043 28.1035H76.4678L75.262 35.55ZM72.9035 34.1588C73.6455 34.1588 74.1623 33.324 74.1623 32.1183C74.1623 31.3498 73.8708 30.9258 73.3143 30.9258C72.5855 30.9258 72.0688 31.7738 72.0688 32.9663C72.0953 33.748 72.3603 34.1588 72.9035 34.1588Z" fill="#FEFEFE"/>
<path fill-rule="evenodd" clip-rule="evenodd" d="M75.9639 35.0732C75.9639 34.8082 76.1759 34.5962 76.4409 34.5962C76.7059 34.5962 76.9179 34.8082 76.9179 35.0732C76.9179 35.3382 76.7059 35.5502 76.4409 35.5502C76.1759 35.5502 75.9639 35.3382 75.9639 35.0732ZM76.4276 35.4442C76.6264 35.4442 76.7854 35.2852 76.7854 35.0864C76.7854 34.8877 76.6264 34.7287 76.4276 34.7287C76.2289 34.7287 76.0699 34.8877 76.0699 35.0864C76.0699 35.2719 76.2289 35.4442 76.4276 35.4442ZM76.3746 35.2852V35.1129H76.4409L76.5071 35.2852H76.6131L76.5336 35.0997C76.5734 35.0864 76.5999 35.0334 76.5999 34.9937C76.5999 34.9539 76.5734 34.9142 76.5469 34.8877C76.5071 34.8744 76.4674 34.8744 76.4409 34.8744H76.2686V35.2852H76.3746ZM76.3746 35.0467H76.4276C76.4541 35.0467 76.4674 35.0467 76.4939 35.0334C76.5071 35.0202 76.5204 35.0069 76.5204 34.9937C76.5204 34.9804 76.5071 34.9539 76.4939 34.9407C76.4806 34.9274 76.4409 34.9407 76.4276 34.9407H76.3746V35.0467Z" fill="#FEFEFE"/>
<path fill-rule="evenodd" clip-rule="evenodd" d="M16.4583 56.7504C16.4053 54.3654 17.8098 52.0599 19.996 52.0599C21.2812 52.0599 22.275 52.8152 22.3147 54.4449C22.3678 56.8431 21.162 59.2944 19.042 59.2944C17.3328 59.2811 16.4848 58.0489 16.4583 56.7504ZM13 64.4619H14.8683L15.968 59.0559H16.0078C16.498 60.1556 17.5713 60.7254 19.3468 60.7254C22.7255 60.7254 24.3818 57.8236 24.3155 54.2992C24.2758 52.2189 22.911 50.6289 20.6187 50.6289C19.201 50.6289 17.77 51.1192 17.0545 52.3249H17.0148L17.3195 50.8542H15.5705C15.4513 51.9142 15.279 52.9742 15.1068 54.0474L13 64.4619Z" fill="#373435"/>
<path fill-rule="evenodd" clip-rule="evenodd" d="M28.5554 59.2807C27.6544 59.2807 26.8727 58.8302 26.8594 57.9822C26.8197 56.22 28.9397 55.8622 30.3442 55.8622H31.7752C31.5897 57.4787 30.4369 59.2807 28.5554 59.2807ZM26.7799 52.8677C27.6014 52.3907 28.7674 52.0595 29.8672 52.0595C31.2319 52.0595 32.1992 52.5895 32.2257 53.9675C32.2257 54.1927 32.1727 54.4047 32.1329 54.5902C31.6824 54.577 31.1789 54.5372 30.7814 54.5372C27.3894 54.5372 24.7924 55.319 24.8587 58.0617C24.8984 59.877 26.4487 60.725 28.1579 60.725C29.6552 60.725 30.8212 59.9167 31.4439 58.764H31.4837C31.3777 59.3337 31.2452 60.0227 31.1657 60.4865H32.8882C33.1134 58.7905 33.4844 56.9885 33.8289 55.1865C33.9216 54.736 33.9879 54.1 33.9746 53.676C33.9216 51.3705 31.9474 50.6152 29.8937 50.6152C29.1649 50.6152 27.9724 50.8272 27.0847 51.1055L26.7799 52.8677Z" fill="#373435"/>
<path fill-rule="evenodd" clip-rule="evenodd" d="M33.6034 63.0838C33.7492 63.1633 34.0804 63.2561 34.4249 63.2561C35.5512 63.2296 36.3197 62.5141 37.0617 61.0301L35.2067 50.8408H37.1544L38.5059 58.5391H38.5457L42.7857 50.8408H44.7997L38.1349 62.3021C37.2737 63.7729 36.6112 64.6871 34.7429 64.6871C34.2924 64.6871 33.8154 64.6474 33.3252 64.5546L33.6034 63.0838Z" fill="#373435"/>
<path fill-rule="evenodd" clip-rule="evenodd" d="M46.3241 62.7129C46.3241 61.0831 47.4106 58.8572 49.2258 58.8572C50.4448 58.8572 51.0676 59.8774 51.0676 61.3879C51.0676 63.3091 49.9811 65.2304 48.1658 65.2304C46.8806 65.2304 46.3241 63.9716 46.3241 62.7129ZM40.3086 73.1671H44.1908L45.6086 66.1446C46.4168 67.6816 47.5033 68.4899 49.1861 68.4899C53.2008 68.4899 55.0293 64.7269 55.0293 60.6857C55.0293 57.9164 53.6248 55.5977 50.8953 55.5977C49.5041 55.5977 48.0731 56.2602 46.9071 57.8502H46.8673L47.1588 55.8892H43.6343C43.5946 56.3927 43.5548 57.0022 43.3958 57.7309L40.3086 73.1671Z" fill="#59B039"/>
<path fill-rule="evenodd" clip-rule="evenodd" d="M59.0309 64.4221C59.0309 63.3356 60.3824 62.5936 62.2109 62.6731C62.4494 62.6731 62.9131 62.6731 63.2311 62.7394C62.9529 64.3956 61.9724 65.6544 60.3294 65.6544C59.5211 65.6544 59.0309 64.9919 59.0309 64.4221ZM62.7144 68.2116H65.8546C66.2786 64.5016 67.2591 61.7324 67.2591 59.7846C67.2591 56.7637 65.0861 55.5977 62.4361 55.5977C60.7136 55.5977 59.4946 55.8759 58.3551 56.3132L57.9709 59.4137C59.2561 58.6849 60.1969 58.4464 61.5749 58.4464C62.8336 58.4464 63.6286 59.1619 63.6286 60.0231C63.6286 60.1954 63.6286 60.3544 63.5889 60.5266C63.0589 60.4736 62.2771 60.4074 61.5219 60.4074C58.1299 60.4074 55.4004 61.8914 55.4004 64.9256C55.4004 67.3106 56.7254 68.5031 59.1104 68.5031C60.8594 68.5031 62.0519 67.7346 62.8601 66.3169H62.8999L62.7144 68.2116Z" fill="#59B039"/>
<path fill-rule="evenodd" clip-rule="evenodd" d="M67.9345 64.9389C68.915 65.4159 69.975 65.6544 71.0483 65.6544C71.6578 65.6544 73.1948 65.5881 73.1948 64.5679C73.1948 62.8189 68.6103 63.7066 68.6103 59.6389C68.6103 56.7504 71.6445 55.5977 74.2283 55.5977C75.1823 55.5977 76.5338 55.8362 77.925 56.3264L77.1168 59.1089C76.1363 58.6584 75.1955 58.4199 74.0428 58.4199C73.1815 58.4199 72.254 58.6319 72.254 59.4799C72.254 60.8579 77.0505 60.7519 77.0505 63.8524C77.0505 66.8999 74.7185 68.4104 71.8433 68.4634C70.1605 68.4766 68.3585 68.1984 67.166 67.8274L67.9345 64.9389Z" fill="#59B039"/>
<path fill-rule="evenodd" clip-rule="evenodd" d="M77.7265 64.9389C78.707 65.4159 79.7803 65.6544 80.8403 65.6544C81.463 65.6544 83 65.5881 83 64.5679C83 62.8189 78.4023 63.7066 78.4023 59.6389C78.4023 56.7504 81.4365 55.5977 84.0203 55.5977C84.9743 55.5977 86.3257 55.8362 87.717 56.3264L86.9087 59.1089C85.9282 58.6584 84.9875 58.4199 83.8347 58.4199C82.9867 58.4199 82.046 58.6319 82.046 59.4799C82.046 60.8579 86.8425 60.7519 86.8425 63.8524C86.8425 66.8999 84.5238 68.4104 81.6353 68.4634C79.9525 68.4766 78.1638 68.1984 76.958 67.8274L77.7265 64.9389Z" fill="#59B039"/>
<path fill-rule="evenodd" clip-rule="evenodd" d="M90.3675 57.0285H89.7845L89.4533 58.6583H89.1883L89.5195 57.0285H88.9365L88.9763 56.79H90.4073L90.3675 57.0285ZM90.7253 56.8033L90.3145 58.6583H90.5795L90.924 57.0683H90.9373L91.2023 58.6583H91.4673L92.408 57.0683L92.09 58.6583H92.355L92.7393 56.8033H92.302L91.401 58.327L91.136 56.8033H90.7253Z" fill="#59B039"/>
</svg>
