<svg width="106" height="90" viewBox="0 0 106 90" fill="none" xmlns="http://www.w3.org/2000/svg">
<rect width="106" height="90" rx="10" fill="white"/>
<path fill-rule="evenodd" clip-rule="evenodd" d="M13.5028 43.4524H11.006L6 30.1406H8.86059L12.3485 40.1778L15.8239 30.1532H18.4712L13.5028 43.4524Z" fill="#0057A0"/>
<path fill-rule="evenodd" clip-rule="evenodd" d="M19.6264 34.1278H21.9349V43.3996H19.6264V34.1278ZM22.1608 31.3425C22.1608 31.7314 22.0227 32.0451 21.7593 32.2835C21.4958 32.5218 21.1696 32.6473 20.7932 32.6473C20.4043 32.6473 20.078 32.5218 19.8146 32.2835C19.5511 32.0451 19.4131 31.7314 19.4131 31.3425C19.4131 30.941 19.5511 30.6273 19.8146 30.3764C20.078 30.1255 20.4043 30 20.7932 30C21.1696 30 21.4832 30.1255 21.7593 30.3764C22.0227 30.6273 22.1608 30.9535 22.1608 31.3425Z" fill="#0057A0"/>
<path fill-rule="evenodd" clip-rule="evenodd" d="M31.2427 40.6767C31.2427 41.5926 30.929 42.3078 30.2892 42.8222C29.6493 43.324 28.7209 43.5875 27.4913 43.5875C26.8138 43.5875 26.1488 43.4997 25.509 43.324C24.8691 43.1484 24.3296 42.9351 23.8779 42.6842L24.1916 40.7646C24.6934 41.0908 25.2329 41.3668 25.8226 41.555C26.4123 41.7557 26.9894 41.8561 27.5666 41.8561C28.0684 41.8561 28.4448 41.7683 28.7083 41.5926C28.9718 41.417 29.0972 41.1911 29.0972 40.89C29.0972 40.7269 29.0722 40.5764 29.0094 40.4509C28.9467 40.3254 28.8463 40.2251 28.7083 40.1247C28.5703 40.0243 28.3696 39.9365 28.1312 39.8612C27.8928 39.7734 27.5791 39.6856 27.2153 39.5977C26.6507 39.4597 26.1739 39.2966 25.7599 39.1335C25.3584 38.9704 25.0322 38.7697 24.7687 38.5438C24.5178 38.318 24.3296 38.0545 24.2041 37.7534C24.0787 37.4523 24.0285 37.0885 24.0285 36.6619C24.0285 35.8589 24.3296 35.1939 24.9193 34.6921C25.509 34.1902 26.3621 33.9268 27.4411 33.9268C28.6581 33.9268 29.7371 34.14 30.6906 34.5792L30.3895 36.4988C29.9253 36.2478 29.436 36.0346 28.9216 35.884C28.4072 35.7334 27.9179 35.6582 27.4537 35.6582C27.0145 35.6582 26.6883 35.7334 26.4876 35.884C26.2743 36.0346 26.1739 36.2478 26.1739 36.4988C26.1739 36.7372 26.2868 36.9505 26.5252 37.1136C26.7511 37.2767 27.2153 37.4523 27.9053 37.628C28.5076 37.7785 29.022 37.9416 29.436 38.1047C29.8626 38.2678 30.2013 38.4686 30.4774 38.6944C30.7408 38.9202 30.9416 39.1963 31.067 39.5099C31.18 39.8612 31.2427 40.2376 31.2427 40.6767Z" fill="#0057A0"/>
<path fill-rule="evenodd" clip-rule="evenodd" d="M38.1312 38.7697C37.4662 38.845 36.9142 38.9579 36.4876 39.0959C36.061 39.2339 35.7222 39.397 35.4839 39.5601C35.2455 39.7358 35.0698 39.924 34.982 40.1247C34.8816 40.3254 34.844 40.5387 34.844 40.752C34.844 41.0908 34.9444 41.3417 35.1451 41.5424C35.3459 41.7306 35.6219 41.831 35.9857 41.831C36.3872 41.831 36.7636 41.7432 37.1274 41.5675C37.4913 41.3919 37.83 41.1535 38.1563 40.8273V38.7697H38.1312ZM38.4574 43.3993L38.2692 42.1949C37.8928 42.5963 37.4662 42.9226 36.9643 43.186C36.4625 43.4495 35.8728 43.5875 35.1828 43.5875C34.3923 43.5875 33.7525 43.3617 33.2757 42.91C32.7989 42.4583 32.5605 41.8185 32.5605 41.0155C32.5605 39.8863 33.0248 39.0583 33.9407 38.5062C34.8565 37.9667 36.2617 37.6029 38.1437 37.4272V37.1512C38.1437 36.6493 38.0057 36.298 37.7297 36.0847C37.4537 35.8715 37.0647 35.7711 36.5503 35.7711C36.0108 35.7711 35.4839 35.8464 34.9695 35.9844C34.4551 36.1224 33.9532 36.3106 33.4513 36.5239L33.1628 34.6795C33.7023 34.4663 34.2669 34.2781 34.8565 34.14C35.4462 34.002 36.1112 33.9268 36.8514 33.9268C38.0559 33.9268 38.9592 34.1651 39.5489 34.6545C40.1386 35.1312 40.4397 35.9342 40.4397 37.0383V43.3993H38.4574Z" fill="#0057A0"/>
<path fill-rule="evenodd" clip-rule="evenodd" d="M19.5127 57.1V46.3477H21.1563L21.3319 47.4142C21.6079 47.1005 21.9467 46.8245 22.3231 46.5736C22.6995 46.3226 23.1637 46.1972 23.7158 46.1972C24.1172 46.1972 24.5062 46.2725 24.8575 46.4356C25.2088 46.5861 25.5224 46.8245 25.7859 47.1382C26.0494 47.4518 26.2627 47.8533 26.4132 48.3301C26.5638 48.8068 26.6391 49.3714 26.6391 50.0238C26.6391 50.739 26.5512 51.3663 26.3505 51.8933C26.1623 52.4202 25.9114 52.8593 25.5977 53.1981C25.2841 53.5368 24.9328 53.7878 24.5187 53.9509C24.1047 54.114 23.6781 54.2018 23.2264 54.2018C22.85 54.2018 22.5113 54.1767 22.2227 54.114C21.9216 54.0512 21.6581 53.9885 21.4323 53.9007V56.824L19.5127 57.1ZM24.6944 50.1242C24.6944 49.3714 24.5564 48.8194 24.2803 48.443C24.0043 48.0666 23.6405 47.8909 23.2013 47.8909C22.8626 47.8909 22.5489 47.9913 22.2604 48.1921C21.9718 48.3928 21.7083 48.6563 21.4448 48.9825V52.3073C21.6832 52.4202 21.9091 52.508 22.1224 52.5582C22.3356 52.6084 22.6117 52.6335 22.9379 52.6335C23.4397 52.6335 23.8538 52.4202 24.1925 52.0187C24.5187 51.6172 24.6944 50.9774 24.6944 50.1242ZM32.4606 50.2371C31.9086 50.2999 31.4444 50.3877 31.0805 50.5131C30.7167 50.6261 30.4406 50.7641 30.2399 50.9021C30.0392 51.0401 29.8886 51.2032 29.8133 51.3789C29.738 51.5545 29.6879 51.7301 29.6879 51.9058C29.6879 52.1818 29.7757 52.4077 29.9388 52.5708C30.1019 52.7339 30.3403 52.8091 30.6414 52.8091C30.9801 52.8091 31.2938 52.7339 31.5949 52.5959C31.896 52.4453 32.1846 52.2446 32.4606 51.9811V50.2371ZM32.7241 54.114L32.561 53.0977C32.2473 53.4239 31.8835 53.7125 31.4694 53.9383C31.0554 54.1642 30.5536 54.2771 29.9764 54.2771C29.3115 54.2771 28.7845 54.0889 28.383 53.6999C27.9815 53.3236 27.7808 52.7966 27.7808 52.1191C27.7808 51.1781 28.1697 50.4755 28.9351 50.0238C29.7004 49.5722 30.8798 49.271 32.4606 49.1205V48.8947C32.4606 48.4806 32.3477 48.1795 32.1093 48.0039C31.8835 47.8282 31.5447 47.7404 31.1181 47.7404C30.6665 47.7404 30.2274 47.8031 29.8008 47.916C29.3742 48.029 28.9476 48.1795 28.5336 48.3677L28.2952 46.8245C28.7469 46.6363 29.2111 46.4983 29.7129 46.3728C30.2023 46.2599 30.7668 46.1972 31.3816 46.1972C32.3853 46.1972 33.1381 46.3979 33.64 46.7994C34.1418 47.2009 34.3928 47.8658 34.3928 48.8068V54.1265H32.7241V54.114ZM39.9634 54.528C39.7877 55.0048 39.5995 55.4063 39.3988 55.7325C39.1981 56.0587 38.9722 56.3096 38.7213 56.5103C38.4704 56.6985 38.1943 56.8365 37.9058 56.9244C37.6047 56.9997 37.2659 57.0498 36.8895 57.0498C36.7139 57.0498 36.5758 57.0373 36.4755 57.0247C36.3626 57.0122 36.2747 56.9871 36.1869 56.9746L35.936 55.3812C36.0614 55.4063 36.1995 55.4439 36.35 55.4564C36.5006 55.4815 36.6637 55.4941 36.8393 55.4941C37.1153 55.4941 37.3663 55.4313 37.5921 55.2933C37.8179 55.1553 37.981 54.9546 38.094 54.6786L38.2696 54.1642L35.4592 46.5108L37.4666 46.2474L39.2608 51.7803L40.9922 46.3603H42.8993L39.9634 54.528ZM55.0066 54.114H52.9866L50.5275 46.0466L48.0684 54.114H46.061L42.9494 43.2989L45.1702 42.8975L47.2654 50.8394L49.5865 43.0104H51.7194L54.0405 50.8394L56.073 43.0104H58.2059L55.0066 54.114ZM62.961 50.2371C62.409 50.2999 61.9447 50.3877 61.5809 50.5131C61.217 50.6261 60.941 50.7641 60.7403 50.9021C60.5395 51.0401 60.4015 51.2032 60.3137 51.3789C60.2259 51.5545 60.1882 51.7301 60.1882 51.9058C60.1882 52.1818 60.2761 52.4077 60.4392 52.5708C60.6023 52.7339 60.8407 52.8091 61.1418 52.8091C61.4805 52.8091 61.7942 52.7339 62.0953 52.5959C62.3964 52.4453 62.685 52.2446 62.961 51.9811V50.2371ZM63.237 54.114L63.0739 53.0977C62.7603 53.4239 62.3964 53.7125 61.9824 53.9383C61.5683 54.1642 61.0665 54.2771 60.4893 54.2771C59.8244 54.2771 59.2974 54.0889 58.896 53.6999C58.4945 53.3236 58.2937 52.7966 58.2937 52.1191C58.2937 51.1781 58.6827 50.4755 59.448 50.0238C60.2133 49.5722 61.3927 49.271 62.9735 49.1205V48.8947C62.9735 48.4806 62.8606 48.1795 62.6348 48.0039C62.409 47.8282 62.0702 47.7404 61.6436 47.7404C61.192 47.7404 60.7528 47.8031 60.3262 47.916C59.8997 48.029 59.4731 48.1795 59.0591 48.3677L58.8207 46.8245C59.2723 46.6363 59.7491 46.4983 60.2384 46.3728C60.7277 46.2599 61.2923 46.1972 61.9071 46.1972C62.9108 46.1972 63.6636 46.3979 64.1655 46.7994C64.6673 47.2009 64.9057 47.8658 64.9057 48.8068V54.1265H63.237V54.114ZM70.539 54.1391H68.6571L65.947 46.4857L67.967 46.2223L69.6984 51.7427L71.3671 46.3352H73.2867L70.539 54.1391ZM78.4308 48.0039C78.1798 47.6777 77.8285 47.5271 77.3518 47.5271C76.9628 47.5271 76.6241 47.6777 76.348 47.9913C76.0595 48.2924 75.8838 48.7692 75.8086 49.4091H78.895C78.8322 48.7817 78.6817 48.3175 78.4308 48.0039ZM80.7769 50.1368C80.7769 50.2246 80.7769 50.3124 80.7644 50.4002C80.7644 50.4881 80.7518 50.5508 80.7518 50.6135H75.7709C75.8211 51.3788 76.0344 51.9309 76.4108 52.2696C76.7746 52.6084 77.2639 52.784 77.8662 52.784C78.368 52.784 78.8322 52.6962 79.2588 52.5331C79.6854 52.3575 80.112 52.1316 80.5386 51.8305L80.7644 53.3361C80.3504 53.6247 79.8861 53.863 79.3717 54.0261C78.8573 54.2018 78.2927 54.2896 77.6654 54.2896C77.1134 54.2896 76.6115 54.2143 76.1473 54.0512C75.6831 53.8881 75.2816 53.6498 74.9554 53.3236C74.6166 52.9973 74.3532 52.5833 74.1524 52.0689C73.9642 51.5545 73.8639 50.9523 73.8639 50.2622C73.8639 49.6349 73.9517 49.0703 74.1273 48.5685C74.303 48.0666 74.5539 47.64 74.8676 47.3013C75.1812 46.95 75.5576 46.6865 75.9967 46.4983C76.4359 46.3101 76.9001 46.2223 77.4019 46.2223C77.9791 46.2223 78.4809 46.3226 78.9075 46.5234C79.3341 46.7241 79.6854 47.0127 79.9614 47.364C80.2374 47.7278 80.4382 48.1419 80.5762 48.6312C80.7142 49.0703 80.7769 49.5973 80.7769 50.1368Z" fill="#FAA61A"/>
<path fill-rule="evenodd" clip-rule="evenodd" d="M89.2719 47.7776C89.4475 48.0159 89.5856 48.2794 89.6859 48.568C89.7863 48.8566 89.8365 49.1577 89.8365 49.4839C89.8365 49.8101 89.7863 50.1112 89.6859 50.3998C89.5856 50.6883 89.4475 50.9518 89.2719 51.1902C89.0335 51.5164 89.0962 51.9681 89.4225 52.219C89.7487 52.4574 90.2003 52.3947 90.4513 52.0684C90.7147 51.7046 90.928 51.3031 91.0786 50.8765C91.2291 50.4374 91.3044 49.9732 91.3044 49.4964C91.3044 49.0197 91.2291 48.5554 91.0786 48.1163C90.928 47.6772 90.7147 47.2757 90.4513 46.9244C90.2129 46.5982 89.7487 46.5355 89.4225 46.7738C89.0962 46.9997 89.0335 47.4639 89.2719 47.7776Z" fill="#0057A0"/>
<path fill-rule="evenodd" clip-rule="evenodd" d="M91.7793 46.423C92.3314 47.3138 92.645 48.3677 92.645 49.4843C92.645 50.6135 92.3314 51.6549 91.7793 52.5582C91.5661 52.897 91.679 53.3486 92.0177 53.5619C92.3565 53.7752 92.8082 53.6623 93.0214 53.3235C93.7115 52.2069 94.1004 50.8895 94.1004 49.4843C94.1004 48.0791 93.6989 46.7618 93.0214 45.6451C92.8082 45.3064 92.3565 45.1934 92.0177 45.4067C91.6664 45.62 91.5661 46.0717 91.7793 46.423Z" fill="#0057A0"/>
<path fill-rule="evenodd" clip-rule="evenodd" d="M94.4398 45.0314C95.2051 46.3362 95.6443 47.8669 95.6443 49.4854C95.6443 51.1164 95.2051 52.6345 94.4398 53.9394C94.2391 54.2907 94.352 54.7423 94.7033 54.9431C95.0546 55.1438 95.4937 55.0309 95.707 54.6796C96.5978 53.1489 97.1122 51.3799 97.1122 49.4854C97.1122 47.5909 96.5978 45.8093 95.707 44.2912C95.5062 43.9399 95.0546 43.8269 94.7033 44.0277C94.352 44.2284 94.2391 44.6801 94.4398 45.0314Z" fill="#0057A0"/>
<path fill-rule="evenodd" clip-rule="evenodd" d="M97.088 43.6389C98.0666 45.3703 98.6312 47.3652 98.6312 49.4981C98.6312 51.631 98.0666 53.6258 97.088 55.3572C96.8872 55.7085 97.0127 56.1602 97.364 56.361C97.7153 56.5617 98.167 56.4362 98.3677 56.0849C99.4718 54.1403 100.099 51.8944 100.099 49.5106C100.099 47.1142 99.4718 44.8684 98.3677 42.9363C98.167 42.585 97.7153 42.4595 97.364 42.6603C97.0127 42.8359 96.8872 43.2876 97.088 43.6389Z" fill="#0057A0"/>
</svg>
